<svg xmlns="http://www.w3.org/2000/svg" viewBox="0 0 1200 700" role="img" aria-labelledby="title desc">
  <title id="title">Content strategy analytics visual</title>
  <desc id="desc">An abstract analytics board showing viewership, ratings, and ROI-style decision signals.</desc>
  <defs>
    <linearGradient id="bg2" x1="0" x2="1" y1="0" y2="1">
      <stop offset="0%" stop-color="#13243a" />
      <stop offset="52%" stop-color="#172e44" />
      <stop offset="100%" stop-color="#1b2235" />
    </linearGradient>
    <linearGradient id="bars" x1="0" x2="0" y1="1" y2="0">
      <stop offset="0%" stop-color="#7de9db" />
      <stop offset="100%" stop-color="#f1b36b" />
    </linearGradient>
  </defs>
  <rect width="1200" height="700" rx="36" fill="url(#bg2)" />
  <circle cx="1020" cy="126" r="96" fill="#7de9db" opacity="0.1" />
  <circle cx="170" cy="566" r="88" fill="#f1b36b" opacity="0.12" />
  <rect x="92" y="84" width="1016" height="532" rx="30" fill="rgba(255,255,255,0.06)" stroke="rgba(255,255,255,0.12)" />
  <rect x="142" y="140" width="388" height="190" rx="24" fill="rgba(255,255,255,0.08)" />
  <rect x="562" y="140" width="496" height="190" rx="24" fill="rgba(255,255,255,0.08)" />
  <rect x="142" y="364" width="916" height="204" rx="24" fill="rgba(255,255,255,0.08)" />
  <g fill="url(#bars)">
    <rect x="200" y="454" width="70" height="74" rx="12" />
    <rect x="306" y="420" width="70" height="108" rx="12" />
    <rect x="412" y="388" width="70" height="140" rx="12" />
    <rect x="518" y="432" width="70" height="96" rx="12" />
    <rect x="624" y="366" width="70" height="162" rx="12" />
    <rect x="730" y="404" width="70" height="124" rx="12" />
  </g>
  <path d="M846 500c56-96 112-130 168-112" fill="none" stroke="#7de9db" stroke-width="14" stroke-linecap="round" />
  <circle cx="1010" cy="388" r="18" fill="#f1b36b" />
  <text x="142" y="118" font-family="Verdana, sans-serif" font-size="26" letter-spacing="3" fill="#7de9db">
    CONTENT STRATEGY ANALYTICS
  </text>
</svg>
